<svg width="24" height="24" viewBox="0 0 24 24" fill="none" xmlns="http://www.w3.org/2000/svg">
<g clip-path="url(#clip0_12_67)">
<path d="M12 13C12.5523 13 13 12.5523 13 12C13 11.4477 12.5523 11 12 11C11.4477 11 11 11.4477 11 12C11 12.5523 11.4477 13 12 13Z" fill="#CBD3DE"/>
<path d="M18.4 5.60001L17 7.10001C18.3 8.40001 19 10.2 19 12C19 13.8 18.3 15.6 16.9 17L18.3 18.4C20 16.7 20.9 14.4 20.9 12C20.9 9.60001 20.1 7.30001 18.4 5.60001Z" fill="#94A3B8"/>
<path d="M7.1 7.00001L5.6 5.60001C3.9 7.30001 3 9.60001 3 12C3 14.4 3.9 16.7 5.6 18.4L7 16.9C5.7 15.6 5 13.8 5 12C5 10.2 5.7 8.40001 7.1 7.00001Z" fill="#94A3B8"/>
</g>
<defs>
<clipPath id="clip0_12_67">
<rect width="24" height="24" fill="white"/>
</clipPath>
</defs>
</svg>
