<svg width="13" height="11" viewBox="0 0 13 11" fill="none" xmlns="http://www.w3.org/2000/svg">
<path opacity="0.5" d="M11.8917 0.0971031C11.8917 0.0971031 13.0943 -0.37902 12.9941 0.777325C12.9607 1.25347 12.66 2.91997 12.4262 4.72251L11.6244 10.0621C11.6244 10.0621 11.5576 10.8444 10.9563 10.9804C10.355 11.1164 9.45311 10.5043 9.28606 10.3682C9.15244 10.2662 6.78067 8.73573 5.94553 7.9875C5.71168 7.78345 5.44443 7.37531 5.97891 6.89916L9.48652 3.49816C9.88738 3.09004 10.2882 2.13774 8.61796 3.29409L3.94122 6.52507C3.94122 6.52507 3.40671 6.86516 2.40456 6.55908L0.233203 5.87888C0.233203 5.87888 -0.568532 5.36873 0.801095 4.85855C4.14165 3.26006 8.25053 1.62756 11.8917 0.0971031Z" fill="white"/>
</svg>
